<?xml version="1.0" encoding="UTF-8" standalone="no" ?>
<!DOCTYPE svg PUBLIC "-//W3C//DTD SVG 1.1//EN" "http://www.w3.org/Graphics/SVG/1.1/DTD/svg11.dtd">
<svg xmlns="http://www.w3.org/2000/svg" xmlns:xlink="http://www.w3.org/1999/xlink" version="1.1" width="400" height="120" viewBox="0 0 400 120" xml:space="preserve">
<desc>Created with Fabric.js 5.2.4</desc>
<defs>
</defs>
<g transform="matrix(1 0 0 1 200 60)" id="6b4e6abd-2eb8-48c3-811c-9b2e48258993"  >
<rect style="stroke: none; stroke-width: 1; stroke-dasharray: none; stroke-linecap: butt; stroke-dashoffset: 0; stroke-linejoin: miter; stroke-miterlimit: 4; fill: rgb(255,255,255); fill-rule: nonzero; opacity: 1; visibility: hidden;" vector-effect="non-scaling-stroke"  x="-200" y="-60" rx="0" ry="0" width="400" height="120" />
</g>
<g transform="matrix(Infinity NaN NaN Infinity 0 0)" id="60f064b0-fc8a-491d-a03f-f52e2caddba1"  >
</g>
<g transform="matrix(1.85 0 0 1.85 58.95 60)"  >
<path style="stroke: none; stroke-width: 1; stroke-dasharray: none; stroke-linecap: butt; stroke-dashoffset: 0; stroke-linejoin: miter; stroke-miterlimit: 4; fill: rgb(241,87,87); fill-rule: evenodd; opacity: 1;" vector-effect="non-scaling-stroke"  transform=" translate(-20.68, -20.14)" d="M 20.6841 40.138 C 31.7298 40.138 40.6841 31.1837 40.6841 20.138 C 40.6841 9.09234 31.7298 0.138031 20.6841 0.138031 C 9.63837 0.138031 0.684082 9.09234 0.684082 20.138 C 0.684082 31.1837 9.63837 40.138 20.6841 40.138 Z M 26.9234 9.45487 C 27.2271 8.37608 26.1802 7.73816 25.2241 8.41933 L 11.8772 17.9276 C 10.8403 18.6663 11.0034 20.138 12.1222 20.138 L 15.6368 20.138 L 15.6368 20.1108 L 22.4866 20.1108 L 16.9053 22.0801 L 14.4448 30.8212 C 14.1411 31.9 15.1879 32.5379 16.1441 31.8567 L 29.491 22.3485 C 30.5279 21.6098 30.3647 20.138 29.246 20.138 L 23.9162 20.138 L 26.9234 9.45487 Z" stroke-linecap="round" />
</g>
<g transform="matrix(0.55 0 0 0.55 251.21 60)" id="svgGroup"  >
<path style="stroke: rgb(0,0,0); stroke-width: 0.9448818897637796; stroke-dasharray: none; stroke-linecap: round; stroke-dashoffset: 0; stroke-linejoin: miter; stroke-miterlimit: 4; fill: rgb(0,0,0); fill-rule: evenodd; opacity: 1;" vector-effect="non-scaling-stroke"  transform=" translate(-246.27, -36.91)" d="M 143.075 44.886 L 143.075 48.651 L 99.716 48.651 L 99.716 40.696 L 132.67 40.696 C 132.67829139466275 39.306034980294875 132.5215275606908 37.92000099641858 132.203 36.56699999999999 C 131.92885938139648 35.416521721113725 131.51336720167032 34.30439996923552 130.966 33.256 Q 129.261 30.007 126.19 28.125 C 124.67635303330705 27.208494598858973 122.98797326213683 26.61822585900866 121.233 26.391999999999996 C 120.49263249847658 26.291150259866228 119.74620280878739 26.24136600571955 118.999 26.243000000000002 Q 114.524 26.243 111.204 28.427 Q 107.884 30.611 106.09 34.109 C 104.89123051341606 36.454985126646925 104.2761618602747 39.055562627742674 104.297 41.690000000000005 L 104.297 47.905 C 104.2903646378131 49.302667645487865 104.39704739209152 50.69857302592096 104.616 52.07899999999999 Q 105.007 54.464 105.874 56.446 C 105.98630520981678 56.703572071719535 106.10568381227665 56.95800188645944 106.232 57.20900000000001 C 106.987745309565 58.73843449611178 108.01161374163657 60.11996255910215 109.255 61.288 C 109.98372350932092 61.96362876738091 110.78648689024992 62.55471488405323 111.648 63.05 C 113.29618374145313 63.987969641723865 115.1082911488866 64.60264027571188 116.987 64.861 C 117.91202095416466 64.99392285319384 118.84548068426624 65.05942879916589 119.78 65.057 Q 122.798 65.057 125.284 64.187 C 126.8887042742605 63.63900445625642 128.35495408162234 62.74840357256679 129.581 61.577 Q 131.392 59.837 132.351 57.28 L 142.401 59.091 Q 141.193 63.53 138.086 66.85 C 136.36896952682167 68.66784930417197 134.33029721129247 70.15218447752748 132.073 71.228 C 131.49536966473013 71.50810146517068 130.9069119184755 71.7653015345371 130.309 71.999 C 128.37607080985532 72.74453964991326 126.3612067109257 73.25715169241002 124.307 73.526 C 122.77094914311795 73.7314350796308 121.22272159595097 73.8323338105856 119.673 73.828 Q 111.612 73.828 105.806 70.366 Q 100 66.903 96.857 60.6 Q 93.714 54.297 93.714 45.81 C 93.70019000791943 43.201352077923914 93.95554172736462 40.59823901145387 94.476 38.04200000000002 C 94.97218296984998 35.61623210021294 95.77215494746997 33.26268161586684 96.857 31.037000000000003 C 98.20997434479247 28.225366875162827 100.08021675892392 25.693602112481358 102.37 23.574000000000005 C 103.39153821948652 22.639695093350763 104.49384796811027 21.797736584687325 105.66399999999999 21.058000000000003 C 108.56941633023239 19.238876437520254 111.8438362005644 18.090352743826333 115.249 17.695999999999998 C 116.46944372632548 17.54448598035737 117.69818945780115 17.469672432151178 118.928 17.471999999999998 Q 123.544 17.472 127.876 18.999 Q 132.209 20.526 135.653 23.793 Q 139.098 27.06 141.087 32.262 Q 142.803 36.753 143.038 42.898 C 143.0629790945498 43.56037094610387 143.07531467397393 44.22315829462282 143.075 44.88600000000002 Z M 201.811 44.886 L 201.811 48.651 L 158.452 48.651 L 158.452 40.696 L 191.406 40.696 C 191.41429139466277 39.306034980294875 191.2575275606908 37.92000099641858 190.939 36.56699999999999 C 190.66485938139647 35.416521721113725 190.2493672016703 34.30439996923552 189.702 33.256 Q 187.997 30.007 184.925 28.125 C 183.41165394118278 27.20862530855602 181.7236280165557 26.618361198915437 179.969 26.392000000000003 C 179.22830187448253 26.29110447500859 178.4815364861312 26.241320115785168 177.734 26.243 Q 173.26 26.243 169.94 28.427 Q 166.619 30.611 164.826 34.109 C 163.62723051341604 36.454985126646925 163.0121618602747 39.055562627742674 163.033 41.690000000000005 L 163.033 47.905 C 163.0263646378131 49.302667645487865 163.13304739209153 50.698573025920965 163.352 52.079 Q 163.742 54.464 164.609 56.446 C 164.7216349209348 56.703582868274076 164.84134702901713 56.958012780437926 164.968 57.20900000000001 C 165.723745309565 58.73843449611178 166.74761374163657 60.11996255910215 167.991 61.28799999999999 C 168.71972350932094 61.963628767380904 169.52248689024992 62.55471488405323 170.384 63.05 C 172.03218374145314 63.987969641723865 173.8442911488866 64.60264027571188 175.723 64.861 C 176.64802095416468 64.99392285319384 177.58148068426624 65.05942879916587 178.516 65.057 Q 181.534 65.057 184.02 64.187 C 185.62470427426052 63.63900445625643 187.09095408162236 62.74840357256679 188.317 61.577 Q 190.128 59.837 191.087 57.28 L 201.136 59.091 Q 199.929 63.53 196.822 66.85 C 195.10496952682166 68.66784930417197 193.06629721129246 70.15218447752748 190.809 71.228 C 190.23136966473012 71.50810146517068 189.64291191847548 71.7653015345371 189.045 71.999 C 187.1117504538264 72.74461636070578 185.09654618004265 73.2572295417932 183.042 73.526 C 181.50627985334975 73.73138991086819 179.95838794132473 73.83228854187003 178.409 73.828 Q 170.348 73.828 164.542 70.366 Q 158.736 66.903 155.593 60.6 Q 152.45 54.297 152.45 45.81 C 152.4361900079194 43.201352077923914 152.6915417273646 40.59823901145387 153.212 38.04200000000002 C 153.70818296984996 35.61623210021294 154.50815494746996 33.26268161586684 155.593 31.037000000000003 C 156.94597434479246 28.225366875162827 158.81621675892393 25.693602112481358 161.106 23.574000000000005 C 162.12753821948652 22.639695093350763 163.22984796811025 21.797736584687332 164.39999999999998 21.05800000000001 C 167.3054163302324 19.238876437520254 170.57983620056442 18.09035274382633 173.985 17.695999999999998 C 175.20511264597602 17.544527714745126 176.4335230797609 17.469714246238375 177.663 17.471999999999998 Q 182.28 17.472 186.612 18.999 Q 190.945 20.526 194.389 23.793 Q 197.834 27.06 199.822 32.262 Q 201.539 36.753 201.774 42.898 C 201.7989790945498 43.56037094610387 201.81131467397392 44.22315829462283 201.811 44.886000000000024 Z M 317.188 44.886 L 317.188 48.651 L 273.828 48.651 L 273.828 40.696 L 306.783 40.696 C 306.7912913946628 39.306034980294875 306.6345275606908 37.92000099641858 306.316 36.567 C 306.0415412762686 35.41647620614891 305.62571257844326 34.304352766326666 305.078 33.25599999999999 Q 303.374 30.007 300.302 28.125 C 298.7883530333071 27.208494598858973 297.09997326213687 26.61822585900866 295.345 26.391999999999996 C 294.6046324984766 26.291150259866228 293.8582028087874 26.241366005719545 293.111 26.243 Q 288.636 26.243 285.316 28.427 Q 281.996 30.611 280.202 34.109 C 279.00323051341604 36.454985126646925 278.3881618602747 39.055562627742674 278.409 41.690000000000005 L 278.409 47.905 C 278.4026953538315 49.30269474302841 278.5097125496301 50.69860029072632 278.729 52.07899999999999 Q 279.119 54.464 279.986 56.446 C 280.0983052098168 56.703572071719535 280.2176838122767 56.95800188645944 280.344 57.20900000000001 C 281.099745309565 58.73843449611178 282.1236137416366 60.11996255910215 283.367 61.28799999999999 C 284.0957235093209 61.963628767380904 284.8984868902499 62.55471488405323 285.76 63.05 C 287.4081837414531 63.987969641723865 289.2202911488866 64.60264027571188 291.099 64.861 C 292.02402095416465 64.99392285319384 292.9574806842662 65.05942879916589 293.892 65.057 Q 296.911 65.057 299.396 64.187 C 301.0007042742605 63.63900445625642 302.46695408162236 62.74840357256678 303.693 61.577 Q 305.504 59.837 306.463 57.28 L 316.513 59.091 Q 315.305 63.53 312.198 66.85 C 310.4812663420552 68.66774935172695 308.44294066224717 70.15207899680344 306.186 71.228 C 305.60804151003725 71.50812558114981 305.0192497345009 71.76532584117166 304.421 71.999 C 302.4880708098553 72.74453964991326 300.4732067109257 73.25715169241002 298.419 73.526 C 296.88327985334973 73.73138991086819 295.3353879413247 73.83228854187003 293.786 73.828 Q 285.724 73.828 279.918 70.366 Q 274.112 66.903 270.969 60.6 Q 267.827 54.297 267.827 45.81 C 267.8128609353837 43.20138662267419 268.0678775136582 40.5982739025216 268.588 38.04200000000001 C 269.08418296985 35.61623210021294 269.88415494747 33.262681615866846 270.969 31.03700000000001 C 272.32197434479247 28.225366875162827 274.19221675892396 25.693602112481358 276.482 23.574000000000012 C 277.50353821948653 22.639695093350767 278.60584796811025 21.79773658468733 279.776 21.058000000000007 C 282.68141633023237 19.238876437520258 285.95583620056436 18.090352743826337 289.361 17.695999999999998 C 290.58144372632546 17.544485980357365 291.8101894578012 17.469672432151178 293.04 17.471999999999998 Q 297.656 17.472 301.989 18.999 Q 306.321 20.526 309.766 23.793 Q 313.21 27.06 315.199 32.262 Q 316.916 36.753 317.15 42.898 C 317.1753125174886 43.56036458105379 317.187981490995 44.223151931862496 317.188 44.885999999999974 Z M 451.527 44.886 L 451.527 48.651 L 408.168 48.651 L 408.168 40.696 L 441.122 40.696 C 441.1302913946628 39.306034980294875 440.9735275606908 37.92000099641858 440.655 36.567 C 440.3808593813965 35.416521721113725 439.9653672016703 34.304399969235526 439.418 33.256 Q 437.713 30.007 434.641 28.125 C 433.1276539411828 27.20862530855602 431.43962801655573 26.618361198915437 429.685 26.392000000000003 C 428.9443018744825 26.291104475008588 428.1975364861312 26.24132011578517 427.45 26.243000000000002 Q 422.976 26.243 419.656 28.427 Q 416.335 30.611 414.542 34.109 C 413.3432305134161 36.454985126646925 412.7281618602747 39.05556262774267 412.749 41.68999999999998 L 412.749 47.905 C 412.7423646378131 49.30266764548786 412.8490473920915 50.69857302592095 413.068 52.078999999999986 Q 413.458 54.464 414.325 56.446 C 414.43763492093484 56.703582868274076 414.55734702901714 56.958012780437926 414.684 57.20900000000001 C 415.439745309565 58.73843449611178 416.46361374163655 60.11996255910215 417.707 61.288 C 418.4354107352017 61.963567530359214 419.2378358748428 62.55465160061324 420.099 63.05 C 421.7471837414531 63.987969641723865 423.5592911488866 64.60264027571188 425.438 64.861 C 426.363351271472 64.99397120630823 427.29714697388977 65.05947727562601 428.232 65.057 Q 431.25 65.057 433.736 64.187 C 435.34070427426053 63.63900445625643 436.80695408162234 62.748403572566794 438.033 61.577000000000005 Q 439.844 59.837 440.803 57.28 L 450.852 59.091 Q 449.645 63.53 446.538 66.85 C 444.82096952682167 68.66784930417197 442.7822972112925 70.1521844775275 440.525 71.228 C 439.9473696647301 71.50810146517068 439.3589119184755 71.7653015345371 438.761 71.999 C 436.8277504538264 72.74461636070579 434.81254618004266 73.2572295417932 432.758 73.52599999999998 C 431.22227985334973 73.73138991086819 429.6743879413247 73.83228854187003 428.125 73.828 Q 420.064 73.828 414.258 70.366 Q 408.452 66.903 405.309 60.6 Q 402.166 54.297 402.166 45.81 C 402.15219000791944 43.201352077923914 402.4075417273646 40.59823901145387 402.928 38.04200000000002 C 403.42418296985 35.61623210021294 404.22415494746997 33.26268161586684 405.309 31.03700000000001 C 406.6619743447925 28.225366875162827 408.53221675892394 25.69360211248136 410.822 23.574000000000005 C 411.8435382194865 22.639695093350767 412.94584796811023 21.79773658468733 414.116 21.058000000000007 C 417.0214163302324 19.23887643752025 420.2958362005644 18.090352743826326 423.701 17.695999999999998 C 424.92111264597605 17.544527714745126 426.1495230797609 17.469714246238375 427.379 17.471999999999998 Q 431.996 17.472 436.328 18.999 Q 440.661 20.526 444.105 23.793 Q 447.55 27.06 449.538 32.262 Q 451.255 36.753 451.49 42.898 C 451.5149790945498 43.56037094610387 451.52731467397393 44.22315829462282 451.527 44.88600000000002 Z M 10.973 72.727 L 0 72.727 L 0 0 L 45.099 0 L 45.099 9.446 L 10.973 9.446 L 10.973 31.605 L 41.868 31.605 L 41.868 41.016 L 10.973 41.016 L 10.973 72.727 Z M 248.899 18.182 L 260.298 18.182 L 240.518 72.727 L 229.155 72.727 L 209.339 18.182 L 220.739 18.182 L 234.553 60.156 L 235.121 60.156 L 248.899 18.182 Z M 68.359 72.727 L 57.741 72.727 L 57.741 18.182 L 68.004 18.182 L 68.004 26.847 L 68.572 26.847 C 69.4959745323498 24.00374056923566 71.35475265475918 21.556737060724416 73.846 19.904000000000003 C 76.35930884960187 18.22086805541799 79.32230030561901 17.335909190951746 82.347 17.365 C 82.37199997310975 17.36494814419999 82.39700002689024 17.364948144199985 82.422 17.364999999999995 C 82.68802989584485 17.365221164468835 82.954048100516 17.368554725930878 83.21999999999996 17.374999999999996 Q 83.929 17.392 84.783 17.436 Q 85.91 17.495 86.639 17.577 C 86.7368026306991 17.588231669375766 86.83447550623879 17.600565786764733 86.932 17.614 L 86.932 27.77 Q 86.315 27.598 84.77 27.377 C 84.73300459530938 27.37196605338503 84.69600457973579 27.36696605128049 84.65899999999998 27.36199999999999 C 83.57675855728148 27.208538687030728 82.48506760702196 27.13134841782046 81.392 27.130999999999997 C 80.1237052291933 27.123224204953683 78.85935666850267 27.27303808860619 77.628 27.577000000000005 C 76.60817126092373 27.8323004699943 75.62397903883242 28.21321309110404 74.698 28.711 C 72.78845788782702 29.723534211252723 71.18751920984701 31.232576107113037 70.06399999999998 33.07900000000001 C 69.06096355187094 34.73297384631491 68.48437448257773 36.61015268156444 68.386 38.54200000000001 C 68.36800796143966 38.833653522781965 68.35900369201542 39.12579204187932 68.359 39.418 L 68.359 72.727 Z M 339.631 72.727 L 329.013 72.727 L 329.013 18.182 L 339.276 18.182 L 339.276 26.847 L 339.844 26.847 C 340.7677157256974 24.003887412984867 342.6261266021781 21.556903397167453 345.117 19.904000000000003 C 347.6303088496019 18.220868055417995 350.59330030561904 17.33590919095175 353.618 17.365 C 353.64299997310974 17.36494814419999 353.66800002689024 17.36494814419999 353.693 17.365 C 353.9590298958448 17.365221164468835 354.225048100516 17.368554725930878 354.49099999999993 17.374999999999996 Q 355.2 17.392 356.055 17.436 Q 357.182 17.495 357.91 17.577 C 358.00780263069913 17.588231669375766 358.1054755062388 17.600565786764736 358.203 17.614 L 358.203 27.77 Q 357.586 27.598 356.041 27.377 C 356.00400459530937 27.37196605338503 355.9670045797358 27.36696605128049 355.93 27.36199999999999 C 354.8477585572815 27.208538687030728 353.756067607022 27.13134841782046 352.663 27.130999999999997 C 351.39470522919333 27.123224204953683 350.13035666850266 27.273038088606185 348.899 27.577000000000005 C 347.8791712609237 27.8323004699943 346.8949790388324 28.21321309110404 345.969 28.711 C 344.059457887827 29.72353421125272 342.458519209847 31.232576107113033 341.335 33.07900000000001 C 340.3319635518709 34.73297384631491 339.75537448257774 36.61015268156444 339.657 38.54200000000001 C 339.63934152602366 38.83366380409875 339.6306707483434 39.12580231363361 339.631 39.418 L 339.631 72.727 Z M 473.97 72.727 L 463.352 72.727 L 463.352 18.182 L 473.615 18.182 L 473.615 26.847 L 474.183 26.847 C 475.1069745323498 24.00374056923566 476.96575265475917 21.556737060724416 479.457 19.904000000000003 C 481.97030884960185 18.220868055417984 484.933300305619 17.335909190951742 487.958 17.365000000000002 C 487.98299997310977 17.36494814419999 488.0080000268903 17.36494814419999 488.033 17.365 C 488.29902989584485 17.365221164468835 488.56504810051604 17.368554725930878 488.83099999999996 17.374999999999996 Q 489.54 17.392 490.394 17.436 Q 491.521 17.495 492.25 17.577 C 492.3478026306991 17.588231669375766 492.4454755062388 17.600565786764733 492.543 17.614 L 492.543 27.77 Q 491.925 27.598 490.381 27.377 C 490.34400459530934 27.37196605338503 490.30700457973575 27.36696605128049 490.27 27.36199999999999 C 489.1877585572815 27.208538687030728 488.09606760702195 27.13134841782046 487.003 27.130999999999997 C 485.7347052291933 27.123224204953683 484.47035666850263 27.273038088606185 483.239 27.577000000000005 C 482.2191712609237 27.832300469994305 481.2349790388324 28.213213091104052 480.309 28.711000000000006 C 478.39945788782705 29.72353421125272 476.79851920984703 31.232576107113033 475.675 33.07900000000001 C 474.67196355187093 34.73297384631491 474.09537448257777 36.61015268156444 473.997 38.54200000000001 C 473.97900796143966 38.833653522781965 473.97000369201544 39.12579204187932 473.97 39.418 L 473.97 72.727 Z M 371.094 58.913 L 371.094 5.114 L 381.712 5.114 L 381.712 56.712 C 381.71017169245204 57.25119772440069 381.7345337284633 57.79016605533502 381.785 58.327 Q 381.949 60.012 382.486 61.074 C 382.53241476389957 61.166410499231326 382.582113066417 61.257134917249665 382.635 61.346 C 382.8853943662242 61.77253145953288 383.19253200348703 62.16309750209815 383.548 62.507 C 383.97370481950435 62.91639417384126 384.4787492673891 63.23425907567708 385.032 63.441 C 385.81607726873307 63.72997085562189 386.6373320021048 63.905737551325075 387.471 63.963 C 387.7288985666721 63.981907102113695 387.9874094196081 63.99124684905848 388.246 63.991 Q 389.524 63.991 390.483 63.814 C 390.6340312109253 63.78616857849758 390.78503130501724 63.758168561050084 390.9359999999999 63.730000000000025 Q 391.375 63.647 391.701 63.584 C 391.7920451757638 63.56622914620616 391.8830454641974 63.548229089153374 391.974 63.53000000000001 L 393.892 72.301 C 393.67689488094845 72.38293518902053 393.4591061556552 72.45764372572143 393.239 72.525 Q 392.436 72.773 391.264 73.029 Q 389.56 73.402 387.003 73.438 Q 382.813 73.509 379.19 71.946 C 376.81218044181514 70.93454238886733 374.7774909050218 69.25719975996961 373.331 67.116 C 372.43298009077125 65.78336358385144 371.80324494380164 64.28850685148187 371.477 62.715 Q 371.106 61.012 371.094 59.041 C 371.09387373195943 58.99833342675297 371.09387373195943 58.95566657324703 371.094 58.913000000000004 Z M 363.104 18.182 L 392.898 18.182 L 392.898 26.705 L 363.104 26.705 L 363.104 18.182 Z" stroke-linecap="round" />
</g>
</svg>